<?xml version="1.0" standalone="no"?>
<!DOCTYPE svg PUBLIC "-//W3C//DTD SVG 20010904//EN"
 "http://www.w3.org/TR/2001/REC-SVG-20010904/DTD/svg10.dtd">
<svg version="1.0" xmlns="http://www.w3.org/2000/svg"
 width="600.000000pt" height="600.000000pt" viewBox="0 0 600.000000 600.000000"
 preserveAspectRatio="xMidYMid meet">

<g transform="translate(0.000000,600.000000) scale(0.100000,-0.100000)"
fill="#000000" stroke="none">
<path d="M1985 5361 c-73 -22 -138 -54 -185 -92 -68 -54 -1530 -1525 -1575
-1584 -61 -81 -149 -261 -179 -366 -156 -551 101 -1116 621 -1366 176 -84 436
-128 618 -105 225 29 390 96 572 229 32 23 497 482 1034 1020 932 933 978 980
994 1032 35 108 7 229 -71 305 -58 56 -116 79 -198 79 -134 0 -67 60 -1146
-1017 -1046 -1045 -997 -1000 -1150 -1052 -82 -28 -242 -26 -335 3 -170 53
-316 197 -375 366 -30 88 -38 232 -16 317 24 93 58 163 115 233 27 34 453 465
945 957 l896 894 -27 28 c-44 42 -141 97 -214 118 -86 26 -238 26 -324 1z"/>
<path d="M3417 5369 c-145 -21 -358 -113 -494 -212 -101 -74 -1995 -1970
-2024 -2027 -34 -64 -34 -196 -1 -258 50 -94 157 -162 256 -162 24 0 68 7 97
17 52 16 94 56 1034 993 692 690 994 985 1029 1003 109 60 183 80 296 80 89 1
117 -3 183 -26 91 -32 134 -57 228 -136 77 -65 132 -87 219 -85 105 2 199 64
247 162 22 46 27 69 27 127 -1 90 -26 143 -102 217 -156 153 -376 266 -591
303 -90 16 -308 18 -404 4z"/>
<path d="M4710 4149 c-101 -11 -234 -47 -343 -94 -185 -80 -176 -72 -1230
-1124 -549 -547 -990 -995 -1004 -1020 -40 -66 -44 -179 -11 -253 50 -109 140
-169 258 -171 134 -4 58 -71 1145 1013 958 956 982 979 1055 1013 107 51 152
61 265 60 204 -1 375 -95 485 -265 59 -91 85 -184 85 -308 0 -125 -25 -216
-87 -313 -28 -44 -312 -334 -959 -982 l-920 -920 43 -39 c115 -103 313 -154
471 -120 40 8 104 29 142 46 67 30 98 59 838 797 423 421 794 800 825 841 352
463 294 1125 -132 1528 -179 170 -400 275 -646 308 -116 15 -154 15 -280 3z"/>
<path d="M4745 3274 c-47 -15 -109 -75 -1015 -979 -546 -545 -991 -981 -1024
-1004 -70 -48 -183 -87 -281 -96 -144 -13 -302 44 -439 159 -88 73 -129 90
-222 90 -110 0 -209 -67 -258 -173 -30 -66 -28 -169 3 -234 46 -96 194 -218
366 -302 189 -93 383 -131 590 -115 222 17 382 72 575 198 72 47 232 202 1066
1036 950 949 983 983 1004 1041 85 232 -125 451 -365 379z"/>
</g>
</svg>
